<svg width="156" height="130" viewBox="0 0 156 130" fill="none" xmlns="http://www.w3.org/2000/svg">
<rect width="156" height="130" rx="10" fill="white"/>
<path fill-rule="evenodd" clip-rule="evenodd" d="M14 74.0357V106C14 108.761 16.2386 111 19 111H38.5L61 74.0357H14ZM60 111H137C139.761 111 142 108.761 142 106V24C142 21.2386 139.761 19 137 19H60L88 65L60 111ZM38.5 19H19C16.2386 19 14 21.2386 14 24V55.9643H61L38.5 19ZM113 92.9286C121.837 92.9286 129 81.1601 129 66.6429C129 52.1257 121.837 40.3571 113 40.3571C104.163 40.3571 97 52.1257 97 66.6429C97 81.1601 104.163 92.9286 113 92.9286Z" fill="#023E8A"/>
</svg>
